<?xml version="1.0" standalone="no"?>
<!DOCTYPE svg PUBLIC "-//W3C//DTD SVG 20010904//EN"
 "http://www.w3.org/TR/2001/REC-SVG-20010904/DTD/svg10.dtd">
<svg version="1.0" xmlns="http://www.w3.org/2000/svg"
 width="757.000000pt" height="757.000000pt" viewBox="0 0 757.000000 757.000000"
 preserveAspectRatio="xMidYMid meet">
<metadata>
Created by potrace 1.14, written by Peter Selinger 2001-2017
</metadata>
<g transform="translate(0.000000,757.000000) scale(0.100000,-0.100000)"
fill="#000000" stroke="none">
<path d="M2178 5317 l-657 -662 -1 -722 c0 -671 1 -723 17 -723 16 0 320 57
2238 420 1807 342 2059 390 2062 387 1 -2 -311 -233 -695 -514 l-697 -511 -3
225 c-2 173 -5 224 -15 220 -17 -6 -1357 -405 -2257 -673 -217 -64 -397 -119
-400 -121 -2 -2 239 -247 535 -543 l540 -540 890 0 890 0 657 657 658 658 0
723 0 722 -22 -4 c-76 -16 -215 -44 -543 -106 -203 -39 -556 -107 -782 -150
-227 -44 -599 -116 -825 -159 -227 -44 -719 -139 -1093 -211 -374 -72 -749
-144 -833 -160 -85 -16 -162 -32 -173 -35 -10 -4 -19 -4 -19 -1 0 5 1367 1026
1375 1026 3 0 5 -99 5 -220 0 -129 4 -220 9 -220 5 0 88 24 183 54 95 30 263
82 373 116 110 34 292 90 405 125 113 35 527 163 920 285 393 121 730 226 749
232 l34 10 -539 539 -539 539 -895 0 -895 -1 -657 -662z"/>
</g>
</svg>
